<svg xmlns="http://www.w3.org/2000/svg" viewBox="0 0 1040 680" width="1040" height="680" font-family="'Segoe UI', -apple-system, Arial, sans-serif">
  <defs>
    <marker id="arrow" markerWidth="10" markerHeight="7" refX="9" refY="3.5" orient="auto"><polygon points="0 0, 10 3.5, 0 7" fill="#64748b"/></marker>
    <marker id="arrow-blue" markerWidth="10" markerHeight="7" refX="9" refY="3.5" orient="auto"><polygon points="0 0, 10 3.5, 0 7" fill="#3b82f6"/></marker>
    <marker id="arrow-green" markerWidth="10" markerHeight="7" refX="9" refY="3.5" orient="auto"><polygon points="0 0, 10 3.5, 0 7" fill="#10b981"/></marker>
    <marker id="arrow-orange" markerWidth="10" markerHeight="7" refX="9" refY="3.5" orient="auto"><polygon points="0 0, 10 3.5, 0 7" fill="#f97316"/></marker>
    <marker id="arrow-teal" markerWidth="10" markerHeight="7" refX="9" refY="3.5" orient="auto"><polygon points="0 0, 10 3.5, 0 7" fill="#0891b2"/></marker>
  </defs>

  <rect width="1040" height="680" fill="#0f172a" rx="12"/>
  <text x="520" y="36" text-anchor="middle" fill="#f1f5f9" font-size="18" font-weight="700">HomeOps — Phase 2 Architecture</text>

  <!-- === Raspberry Pi === -->
  <rect x="20" y="60" width="210" height="250" rx="10" fill="#1e293b" stroke="#334155" stroke-width="1.5"/>
  <rect x="20" y="60" width="210" height="32" rx="10" fill="#7c3aed"/>
  <rect x="20" y="80" width="210" height="12" fill="#7c3aed"/>
  <text x="125" y="81" text-anchor="middle" fill="white" font-size="12" font-weight="700">Raspberry Pi</text>
  <text x="125" y="97" text-anchor="middle" fill="#c4b5fd" font-size="10">systemd · 3-zone HVAC monitor</text>

  <rect x="38" y="108" width="174" height="36" rx="6" fill="#2d1b69"/>
  <text x="125" y="123" text-anchor="middle" fill="#e2e8f0" font-size="11" font-weight="600">Observer Service</text>
  <text x="125" y="137" text-anchor="middle" fill="#94a3b8" font-size="10">thermostat event stream</text>

  <rect x="38" y="152" width="174" height="36" rx="6" fill="#2d1b69"/>
  <text x="125" y="167" text-anchor="middle" fill="#e2e8f0" font-size="11" font-weight="600">Consumer Service</text>
  <text x="125" y="181" text-anchor="middle" fill="#94a3b8" font-size="10">rules · anomaly detection</text>

  <rect x="38" y="196" width="174" height="36" rx="6" fill="#312e81" stroke="#6366f1" stroke-width="1"/>
  <text x="125" y="211" text-anchor="middle" fill="#e2e8f0" font-size="11" font-weight="600">Prometheus /metrics</text>
  <text x="125" y="225" text-anchor="middle" fill="#a5b4fc" font-size="10">:8001 · 7 gauges/counters  ← NEW</text>

  <rect x="38" y="240" width="174" height="30" rx="6" fill="#1e293b" stroke="#334155"/>
  <text x="125" y="260" text-anchor="middle" fill="#64748b" font-size="10">16 vents · 3 zones · 1 furnace</text>

  <!-- === Tailscale === -->
  <rect x="20" y="330" width="210" height="52" rx="10" fill="#1e293b" stroke="#334155" stroke-width="1.5"/>
  <rect x="20" y="330" width="210" height="26" rx="10" fill="#0891b2"/>
  <rect x="20" y="346" width="210" height="10" fill="#0891b2"/>
  <text x="125" y="347" text-anchor="middle" fill="white" font-size="12" font-weight="700">Tailscale VPN</text>
  <text x="125" y="370" text-anchor="middle" fill="#94a3b8" font-size="10">Pi: 100.115.21.72 · EC2: 100.125.111.71</text>

  <!-- === EC2 === -->
  <rect x="270" y="60" width="230" height="370" rx="10" fill="#1e293b" stroke="#334155" stroke-width="1.5"/>
  <rect x="270" y="60" width="230" height="32" rx="10" fill="#f97316"/>
  <rect x="270" y="80" width="230" height="12" fill="#f97316"/>
  <text x="385" y="81" text-anchor="middle" fill="white" font-size="12" font-weight="700">EC2 (t4g.micro · ARM64)</text>
  <text x="385" y="97" text-anchor="middle" fill="#fed7aa" font-size="10">Docker Compose · us-east-1</text>

  <rect x="288" y="108" width="194" height="36" rx="6" fill="#431407"/>
  <text x="385" y="123" text-anchor="middle" fill="#e2e8f0" font-size="11" font-weight="600">Nginx (reverse proxy)</text>
  <text x="385" y="137" text-anchor="middle" fill="#94a3b8" font-size="10">/ → FastAPI · /grafana → :3000 · /prometheus → :9090</text>

  <rect x="288" y="152" width="194" height="36" rx="6" fill="#431407"/>
  <text x="385" y="167" text-anchor="middle" fill="#e2e8f0" font-size="11" font-weight="600">FastAPI Backend</text>
  <text x="385" y="181" text-anchor="middle" fill="#94a3b8" font-size="10">:8000 · queries localhost:9090</text>

  <rect x="288" y="196" width="194" height="36" rx="6" fill="#312e81" stroke="#6366f1" stroke-width="1"/>
  <text x="385" y="211" text-anchor="middle" fill="#e2e8f0" font-size="11" font-weight="600">Prometheus</text>
  <text x="385" y="225" text-anchor="middle" fill="#a5b4fc" font-size="10">:9090 · scrapes Pi:8001 · 30d retention  ← NEW</text>

  <rect x="288" y="240" width="194" height="36" rx="6" fill="#312e81" stroke="#6366f1" stroke-width="1"/>
  <text x="385" y="255" text-anchor="middle" fill="#e2e8f0" font-size="11" font-weight="600">Grafana</text>
  <text x="385" y="269" text-anchor="middle" fill="#a5b4fc" font-size="10">:3000 · 4 dashboards as code  ← NEW</text>

  <rect x="288" y="284" width="194" height="36" rx="6" fill="#431407"/>
  <text x="385" y="299" text-anchor="middle" fill="#e2e8f0" font-size="11" font-weight="600">Let's Encrypt (certbot)</text>
  <text x="385" y="313" text-anchor="middle" fill="#94a3b8" font-size="10">api.homeops.now · auto-renewal</text>

  <rect x="288" y="328" width="194" height="36" rx="6" fill="#431407"/>
  <text x="385" y="343" text-anchor="middle" fill="#e2e8f0" font-size="11" font-weight="600">Elastic IP: 32.194.69.77</text>
  <text x="385" y="357" text-anchor="middle" fill="#94a3b8" font-size="10">SSH: Tailscale + agent IPs only</text>

  <rect x="288" y="372" width="194" height="28" rx="6" fill="#431407"/>
  <text x="385" y="391" text-anchor="middle" fill="#94a3b8" font-size="10">Named volumes: prometheus_data · grafana_data</text>

  <!-- === AWS === -->
  <rect x="548" y="60" width="460" height="220" rx="10" fill="#1e293b" stroke="#334155" stroke-width="1.5"/>
  <rect x="548" y="60" width="460" height="32" rx="10" fill="#ea580c"/>
  <rect x="548" y="80" width="460" height="12" fill="#ea580c"/>
  <text x="778" y="81" text-anchor="middle" fill="white" font-size="12" font-weight="700">AWS (us-east-1) — all infra as Terraform code</text>

  <rect x="566" y="108" width="140" height="50" rx="6" fill="#431407"/>
  <text x="636" y="128" text-anchor="middle" fill="#e2e8f0" font-size="11" font-weight="600">CloudFront CDN</text>
  <text x="636" y="143" text-anchor="middle" fill="#94a3b8" font-size="10">homeops.now → S3</text>
  <text x="636" y="155" text-anchor="middle" fill="#94a3b8" font-size="9">E2AOYUC5QNBP7C</text>

  <rect x="720" y="108" width="140" height="50" rx="6" fill="#431407"/>
  <text x="790" y="128" text-anchor="middle" fill="#e2e8f0" font-size="11" font-weight="600">S3 Bucket</text>
  <text x="790" y="143" text-anchor="middle" fill="#94a3b8" font-size="10">homeops-frontend-production</text>
  <text x="790" y="155" text-anchor="middle" fill="#94a3b8" font-size="9">React build artifacts</text>

  <rect x="874" y="108" width="116" height="50" rx="6" fill="#431407"/>
  <text x="932" y="128" text-anchor="middle" fill="#e2e8f0" font-size="11" font-weight="600">ACM Cert</text>
  <text x="932" y="143" text-anchor="middle" fill="#94a3b8" font-size="10">*.homeops.now</text>
  <text x="932" y="155" text-anchor="middle" fill="#94a3b8" font-size="9">DNS-validated</text>

  <rect x="566" y="172" width="140" height="50" rx="6" fill="#431407"/>
  <text x="636" y="192" text-anchor="middle" fill="#e2e8f0" font-size="11" font-weight="600">Route 53</text>
  <text x="636" y="207" text-anchor="middle" fill="#94a3b8" font-size="10">homeops.now zone</text>
  <text x="636" y="219" text-anchor="middle" fill="#94a3b8" font-size="9">A + CNAME records</text>

  <rect x="720" y="172" width="270" height="50" rx="6" fill="#431407"/>
  <text x="855" y="192" text-anchor="middle" fill="#e2e8f0" font-size="11" font-weight="600">IAM — homeops-deploy</text>
  <text x="855" y="207" text-anchor="middle" fill="#94a3b8" font-size="10">EC2, S3, CloudFront, Route53, ACM · scoped policy</text>
  <text x="855" y="219" text-anchor="middle" fill="#94a3b8" font-size="9">GitHub Actions credentials</text>

  <!-- === GitHub === -->
  <rect x="270" y="455" width="230" height="110" rx="10" fill="#1e293b" stroke="#334155" stroke-width="1.5"/>
  <rect x="270" y="455" width="230" height="28" rx="10" fill="#1f2937"/>
  <rect x="270" y="471" width="230" height="10" fill="#1f2937"/>
  <text x="385" y="472" text-anchor="middle" fill="white" font-size="12" font-weight="700">GitHub · dhleach/homeops</text>

  <rect x="288" y="490" width="194" height="34" rx="6" fill="#111827"/>
  <text x="385" y="505" text-anchor="middle" fill="#e2e8f0" font-size="11" font-weight="600">Actions CI/CD</text>
  <text x="385" y="519" text-anchor="middle" fill="#94a3b8" font-size="10">push master → npm build → S3 → CF invalidate</text>

  <rect x="288" y="532" width="194" height="22" rx="6" fill="#111827"/>
  <text x="385" y="547" text-anchor="middle" fill="#94a3b8" font-size="10">path filter: dashboard/frontend/**</text>

  <!-- === Browser === -->
  <rect x="548" y="310" width="460" height="130" rx="10" fill="#1e293b" stroke="#334155" stroke-width="1.5"/>
  <rect x="548" y="310" width="460" height="28" rx="10" fill="#0f766e"/>
  <rect x="548" y="328" width="460" height="10" fill="#0f766e"/>
  <text x="778" y="329" text-anchor="middle" fill="white" font-size="12" font-weight="700">User / Recruiter Browser</text>

  <text x="778" y="358" text-anchor="middle" fill="#e2e8f0" font-size="14" font-weight="600">homeops.now</text>
  <text x="778" y="376" text-anchor="middle" fill="#94a3b8" font-size="10">React + Tailwind · CloudFront HTTPS · live temp cards (FastAPI) · 30s auto-refresh</text>

  <rect x="566" y="386" width="420" height="40" rx="6" fill="#134e4a" stroke="#0f766e" stroke-width="1"/>
  <text x="778" y="401" text-anchor="middle" fill="#e2e8f0" font-size="11" font-weight="600">Embedded Grafana Dashboards (iframes)  ← NEW</text>
  <text x="778" y="418" text-anchor="middle" fill="#94a3b8" font-size="10">api.homeops.now/grafana/d/{uid}?kiosk · Floor Temps · Zone Runtimes · Correlation · Daily Summary</text>

  <!-- === Arrows === -->
  <!-- Pi /metrics → Tailscale (down) -->
  <line x1="125" y1="310" x2="125" y2="329" stroke="#0891b2" stroke-width="1.5" marker-end="url(#arrow-teal)"/>

  <!-- Tailscale → EC2 Prometheus (scrape) -->
  <line x1="230" y1="356" x2="287" y2="214" stroke="#3b82f6" stroke-width="2" marker-end="url(#arrow-blue)"/>
  <text x="242" y="295" fill="#3b82f6" font-size="9" transform="rotate(-65,242,295)">scrape :8001 / 15s</text>

  <!-- EC2 Tailscale link -->
  <line x1="310" y1="430" x2="200" y2="370" stroke="#0891b2" stroke-width="1.5" marker-end="url(#arrow-teal)"/>

  <!-- CloudFront → S3 -->
  <line x1="706" y1="133" x2="721" y2="133" stroke="#64748b" stroke-width="1.5" marker-end="url(#arrow)"/>

  <!-- Route53 → CloudFront -->
  <line x1="636" y1="172" x2="636" y2="158" stroke="#64748b" stroke-width="1.5" marker-end="url(#arrow)"/>

  <!-- GitHub Actions → S3 -->
  <line x1="480" y1="488" x2="719" y2="155" stroke="#10b981" stroke-width="1.5" marker-end="url(#arrow-green)"/>

  <!-- Browser → CloudFront -->
  <line x1="680" y1="310" x2="650" y2="282" stroke="#0f766e" stroke-width="1.5" marker-end="url(#arrow)"/>

  <!-- Browser → EC2 API (FastAPI) -->
  <line x1="620" y1="358" x2="500" y2="186" stroke="#0f766e" stroke-width="1.5" stroke-dasharray="4,3" marker-end="url(#arrow)"/>

  <!-- Browser → EC2 Grafana (iframe) -->
  <line x1="620" y1="406" x2="500" y2="258" stroke="#6366f1" stroke-width="2" marker-end="url(#arrow)"/>
  <text x="530" y="350" fill="#6366f1" font-size="9" transform="rotate(-60,530,350)">iframe /grafana</text>

  <!-- Prometheus → Grafana (internal) -->
  <line x1="385" y1="240" x2="385" y2="257" stroke="#64748b" stroke-width="1.5" marker-end="url(#arrow)"/>

  <!-- Prometheus → FastAPI (internal query) -->
  <line x1="370" y1="196" x2="370" y2="188" stroke="#64748b" stroke-width="1.5" marker-end="url(#arrow)"/>

  <!-- Legend -->
  <rect x="20" y="610" width="1000" height="56" rx="8" fill="#1e293b" stroke="#334155" stroke-width="1"/>
  <text x="38" y="628" fill="#94a3b8" font-size="10" font-weight="600">LEGEND:</text>
  <line x1="100" y1="625" x2="128" y2="625" stroke="#64748b" stroke-width="1.5" marker-end="url(#arrow)"/>
  <text x="133" y="628" fill="#94a3b8" font-size="10">data flow</text>
  <line x1="190" y1="625" x2="218" y2="625" stroke="#3b82f6" stroke-width="2" marker-end="url(#arrow-blue)"/>
  <text x="223" y="628" fill="#3b82f6" font-size="10">Prometheus scrape</text>
  <line x1="340" y1="625" x2="368" y2="625" stroke="#10b981" stroke-width="1.5" marker-end="url(#arrow-green)"/>
  <text x="373" y="628" fill="#10b981" font-size="10">CI/CD deploy</text>
  <line x1="460" y1="625" x2="488" y2="625" stroke="#0891b2" stroke-width="1.5" marker-end="url(#arrow-teal)"/>
  <text x="493" y="628" fill="#0891b2" font-size="10">Tailscale VPN</text>
  <line x1="570" y1="625" x2="598" y2="625" stroke="#6366f1" stroke-width="2" marker-end="url(#arrow)"/>
  <text x="603" y="628" fill="#6366f1" font-size="10">Grafana iframe embed</text>
  <rect x="726" y="616" width="10" height="10" rx="2" fill="#312e81" stroke="#6366f1" stroke-width="1"/>
  <text x="742" y="628" fill="#6366f1" font-size="10">NEW in Phase 2</text>

  <text x="38" y="652" fill="#64748b" font-size="10">Stack: Raspberry Pi (systemd) · FastAPI · Docker Compose · Nginx · Prometheus · Grafana · React/Vite · Tailwind · Terraform · CloudFront/S3/Route53/ACM · GitHub Actions · Tailscale · Let's Encrypt</text>
</svg>